# xmcd
#
# Track frame offsets:
#	182
#	12642
#	27750
#	43250
#	59887
#	76862
#	90202
#	107760
#	120135
#	135022
#	151590
#	164730
#
# Disc length: 2410 seconds
#
# Revision: 3
# Processed by: cddbd v1.5.1PL0 Copyright (c) Steve Scherf et al.
# Submitted via: audiograbber 1.83.01
#
DISCID=8709680c
DTITLE=John Conlee - Best Of John Conlee
DYEAR=1991
DGENRE=Country
TTITLE0=Common Man
TTITLE1=I'm Only In It For The Love
TTITLE2=As Long As I'm Rockin' With You
TTITLE3=In My Eyes
TTITLE4=Don't Get Me Started
TTITLE5=Where Are The Pieces Of My Heart
TTITLE6=River Of Time
TTITLE7=Hit The Ground Runnin'
TTITLE8=Till You Were Gone
TTITLE9=I Had The Time And Money Too
TTITLE10=Fellow Travelers
TTITLE11=Knowin' You Were Leavin'
EXTD=
EXTT0=
EXTT1=
EXTT2=
EXTT3=
EXTT4=
EXTT5=
EXTT6=
EXTT7=
EXTT8=
EXTT9=
EXTT10=
EXTT11=
PLAYORDER=
